<svg width="1411" height="943" viewBox="0 0 1411 943" fill="none" xmlns="http://www.w3.org/2000/svg">
<path d="M1410 0.000488281H1V942H1410V0.000488281Z" fill="#6D22F5"/>
<path d="M433.534 0.000247785C412.566 81.1353 391.731 162.27 375.732 258.505C359.733 354.741 348.57 466.076 307.497 510.141C266.291 553.983 195.041 530.777 138.97 554.648C82.8992 578.742 42.1413 650.357 1.24951 721.75L-3.00242e-05 0.751593L433.534 0.000247785Z" fill="#DA2FBE"/>
<path d="M977 942.03C987.47 836.902 997.941 731.504 1014.42 610.163C1031.03 488.553 1053.66 351 1104.06 321.846C1154.6 292.963 1232.92 372.747 1288.52 347.921C1344.25 323.365 1377.13 194.198 1410.15 65.3021L1409.53 942.332L977 942.03Z" fill="#DA2FBE"/>
</svg>
