<?xml version="1.0" encoding="utf-8"?>
<!-- Generator: Adobe Illustrator 24.1.2, SVG Export Plug-In . SVG Version: 6.00 Build 0)  -->
<svg version="1.1" id="Camada_1" xmlns="http://www.w3.org/2000/svg" xmlns:xlink="http://www.w3.org/1999/xlink" x="0px" y="0px"
	 viewBox="0 0 240 240" style="enable-background:new 0 0 240 240;" xml:space="preserve">
<style type="text/css">
	.st0{fill:#E94C50;}
</style>
<path class="st0" d="M225.8,98.2c-2.9-6.8-6.9-12.7-12-17.9s-11.2-9.1-18.1-11.9c-6.9-2.8-14.4-4.2-22.5-4.2
	c-8.8,0-16.5,1.4-23.2,4.1c-2.8,1.2-5.4,2.5-8,4c-5.6,3.4-10.3,8.1-13.8,13.7l-35.6,56.5c-2.1,3.4-5.3,6.1-9,7.7l-2.6,1.1
	c-4.1,1.7-8.9,2.6-14.4,2.6c-4.7,0-9-0.8-13-2.5c-3.9-1.6-7.3-3.9-10.1-6.9c-2.8-3-5-6.5-6.6-10.7c-1.6-4.2-2.4-8.8-2.4-13.9
	c0-5,0.8-9.6,2.4-13.8c1.6-4.2,3.8-7.8,6.6-10.7c2.8-3,6.2-5.2,10.1-6.8c3.9-1.6,8.2-2.4,13-2.4c5.3,0,10,0.9,14,2.6
	c4,1.7,7.5,4.1,10.3,7.2l16.1-16.2c-5-4.8-10.9-8.6-17.5-11.3c-6.7-2.8-14.3-4.1-22.9-4.1c-8.1,0-15.6,1.4-22.5,4.2
	c-6.9,2.8-12.9,6.7-18,11.7c-5.1,5-9.1,10.9-12,17.7c-2.9,6.8-4.3,14.1-4.3,22c0,7.9,1.4,15.2,4.3,22s6.9,12.7,12,17.9
	c5.2,5.1,11.2,9.1,18.1,11.9c6.9,2.8,14.4,4.2,22.5,4.2c8.8,0,16.5-1.4,23.2-4.1c2.8-1.2,5.4-2.5,8-4c5.6-3.4,10.3-8.1,13.8-13.7
	l8.5-13.6l8.9,14.1c3.3,5.3,7.8,9.8,13.1,13c2.5,1.5,5.2,2.9,8,4.1c6.7,2.8,14.3,4.1,22.9,4.1c8.1,0,15.6-1.4,22.5-4.2
	c6.9-2.8,12.9-6.7,18-11.7c5.1-5,9.1-10.9,12-17.7c2.9-6.8,4.3-14.1,4.3-22C230.1,112.3,228.6,105,225.8,98.2z M203,133.9
	c-1.6,4.2-3.8,7.8-6.6,10.7c-2.8,3-6.2,5.2-10.1,6.8c-3.9,1.6-8.2,2.4-13,2.4c-5.3,0-10-0.9-14-2.6l-2.4-1c-3.6-1.6-6.7-4.2-8.8-7.5
	l-0.8-1.2c-8.5-13.4-8.5-30.5,0-43.9l0,0c2.2-3.5,5.4-6.2,9.2-7.8l2.4-1c4.1-1.7,8.9-2.6,14.4-2.6c4.7,0,9,0.8,13,2.5
	c3.9,1.6,7.3,3.9,10.1,6.9c2.8,3,5,6.5,6.6,10.7c1.6,4.2,2.4,8.8,2.4,13.9C205.4,125.2,204.6,129.8,203,133.9z"/>
</svg>
