<?xml version="1.0" encoding="utf-8"?>
<!-- Generator: Adobe Illustrator 24.1.2, SVG Export Plug-In . SVG Version: 6.00 Build 0)  -->
<svg version="1.1" id="Camada_1" xmlns="http://www.w3.org/2000/svg" xmlns:xlink="http://www.w3.org/1999/xlink" x="0px" y="0px"
	 viewBox="0 0 1080 145.59" style="enable-background:new 0 0 1080 145.59;" xml:space="preserve">
<style type="text/css">
	.st0{fill:#4F4898;}
	.st1{fill:#AE4995;}
	.st2{fill:#E94C50;}
	.st3{fill:#F9D347;}
	.st4{fill:#FFFFFF;}
	.st5{fill:url(#SVGID_1_);}
	.st6{fill:url(#SVGID_2_);}
	.st7{fill:url(#SVGID_3_);}
	.st8{fill:url(#SVGID_4_);}
	.st9{fill:url(#SVGID_5_);}
	.st10{fill:url(#SVGID_6_);}
	.st11{fill:url(#SVGID_7_);}
	.st12{fill:url(#SVGID_8_);}
	.st13{fill:url(#SVGID_9_);}
	.st14{fill:url(#SVGID_10_);}
	.st15{fill:url(#SVGID_11_);}
	.st16{fill:url(#SVGID_12_);}
	.st17{fill:url(#SVGID_13_);}
	.st18{fill:url(#SVGID_14_);}
	.st19{fill:url(#SVGID_15_);}
	.st20{fill:url(#SVGID_16_);}
	.st21{fill:url(#SVGID_17_);}
	.st22{fill:url(#SVGID_18_);}
</style>
<g>
	<g>
		<g>
			
				<linearGradient id="SVGID_1_" gradientUnits="userSpaceOnUse" x1="111.1453" y1="72.7941" x2="501.3179" y2="72.7941" gradientTransform="matrix(1 0 0 1 -27.2842 0)">
				<stop  offset="0" style="stop-color:#4F4898"/>
				<stop  offset="0.2374" style="stop-color:#AE4995"/>
				<stop  offset="0.567" style="stop-color:#E94C50"/>
				<stop  offset="0.671" style="stop-color:#EC6F54"/>
				<stop  offset="0.901" style="stop-color:#F5B851"/>
				<stop  offset="1" style="stop-color:#F9D347"/>
			</linearGradient>
			<rect x="83.86" y="38.83" class="st5" width="7.42" height="69.96"/>
			
				<linearGradient id="SVGID_2_" gradientUnits="userSpaceOnUse" x1="111.1453" y1="72.7941" x2="501.3179" y2="72.7941" gradientTransform="matrix(1 0 0 1 -27.2842 0)">
				<stop  offset="0" style="stop-color:#4F4898"/>
				<stop  offset="0.2374" style="stop-color:#AE4995"/>
				<stop  offset="0.567" style="stop-color:#E94C50"/>
				<stop  offset="0.671" style="stop-color:#EC6F54"/>
				<stop  offset="0.901" style="stop-color:#F5B851"/>
				<stop  offset="1" style="stop-color:#F9D347"/>
			</linearGradient>
			<path class="st6" d="M140.4,62.63c-2.85-1.76-6.1-2.64-9.76-2.64c-3.73,0-7.03,0.81-9.91,2.44c-2.5,1.41-4.55,3.28-6.15,5.61V61
				h-7.12v47.79h7.12V80.62c0-2.71,0.61-5.12,1.83-7.22c1.22-2.1,2.88-3.76,4.98-4.98c2.1-1.22,4.54-1.83,7.32-1.83
				c4.07,0,7.34,1.31,9.81,3.92c2.47,2.61,3.71,6.02,3.71,10.22v28.07h7.22V79.51c0-3.52-0.8-6.78-2.39-9.76
				C145.47,66.76,143.25,64.39,140.4,62.63z"/>
			
				<linearGradient id="SVGID_3_" gradientUnits="userSpaceOnUse" x1="111.1453" y1="72.7941" x2="501.3179" y2="72.7941" gradientTransform="matrix(1 0 0 1 -27.2842 0)">
				<stop  offset="0" style="stop-color:#4F4898"/>
				<stop  offset="0.2374" style="stop-color:#AE4995"/>
				<stop  offset="0.567" style="stop-color:#E94C50"/>
				<stop  offset="0.671" style="stop-color:#EC6F54"/>
				<stop  offset="0.901" style="stop-color:#F5B851"/>
				<stop  offset="1" style="stop-color:#F9D347"/>
			</linearGradient>
			<path class="st7" d="M250.73,88.45c0,4.41-1.17,7.93-3.51,10.58c-2.34,2.64-5.51,3.97-9.51,3.97c-2.58,0-4.85-0.61-6.81-1.83
				c-1.97-1.22-3.47-2.91-4.53-5.08c-1.05-2.17-1.58-4.71-1.58-7.63V61h-7.22v27.76c0,4.2,0.86,7.86,2.59,10.98
				c1.73,3.12,4.12,5.58,7.17,7.37c3.05,1.8,6.51,2.69,10.37,2.69c3.93,0,7.42-0.88,10.47-2.64c3.05-1.76,5.42-4.24,7.12-7.42
				c1.69-3.19,2.54-6.85,2.54-10.98V61h-7.12V88.45z"/>
			
				<linearGradient id="SVGID_4_" gradientUnits="userSpaceOnUse" x1="111.1453" y1="72.7941" x2="501.3179" y2="72.7941" gradientTransform="matrix(1 0 0 1 -27.2842 0)">
				<stop  offset="0" style="stop-color:#4F4898"/>
				<stop  offset="0.2374" style="stop-color:#AE4995"/>
				<stop  offset="0.567" style="stop-color:#E94C50"/>
				<stop  offset="0.671" style="stop-color:#EC6F54"/>
				<stop  offset="0.901" style="stop-color:#F5B851"/>
				<stop  offset="1" style="stop-color:#F9D347"/>
			</linearGradient>
			<path class="st8" d="M304.16,62.93c-3.36-1.97-7.2-2.95-11.54-2.95c-4.61,0-8.78,1.09-12.51,3.25c-3.73,2.17-6.68,5.14-8.85,8.9
				c-2.17,3.76-3.25,7.98-3.25,12.66c0,4.75,1.1,9.02,3.3,12.81c2.2,3.8,5.2,6.78,9,8.95c3.8,2.17,8.1,3.25,12.91,3.25
				c3.8,0,7.34-0.73,10.63-2.19c3.29-1.46,6.05-3.51,8.29-6.15l-4.58-4.68c-1.7,2.1-3.76,3.68-6.2,4.73
				c-2.44,1.05-5.12,1.58-8.03,1.58c-3.59,0-6.76-0.78-9.51-2.34c-2.75-1.56-4.88-3.73-6.41-6.51c-1.1-2.01-1.8-4.25-2.1-6.71h39.17
				c0.2-0.95,0.34-1.78,0.41-2.49c0.07-0.71,0.1-1.34,0.1-1.88c0-4.54-0.97-8.56-2.9-12.05C310.16,67.63,307.52,64.9,304.16,62.93z
				 M283.37,68.83c2.58-1.49,5.59-2.24,9.05-2.24c3.32,0,6.15,0.7,8.49,2.08c2.34,1.39,4.13,3.36,5.39,5.9
				c0.98,1.99,1.55,4.28,1.72,6.86h-32.69c0.31-2.36,0.96-4.48,1.98-6.36C278.78,72.4,280.79,70.32,283.37,68.83z"/>
			
				<linearGradient id="SVGID_5_" gradientUnits="userSpaceOnUse" x1="111.1453" y1="72.7941" x2="501.3179" y2="72.7941" gradientTransform="matrix(1 0 0 1 -27.2842 0)">
				<stop  offset="0" style="stop-color:#4F4898"/>
				<stop  offset="0.2374" style="stop-color:#AE4995"/>
				<stop  offset="0.567" style="stop-color:#E94C50"/>
				<stop  offset="0.671" style="stop-color:#EC6F54"/>
				<stop  offset="0.901" style="stop-color:#F5B851"/>
				<stop  offset="1" style="stop-color:#F9D347"/>
			</linearGradient>
			<path class="st9" d="M358.82,62.63c-2.85-1.76-6.1-2.64-9.76-2.64c-3.73,0-7.03,0.81-9.91,2.44c-2.5,1.41-4.55,3.28-6.15,5.61V61
				h-7.12v47.79h7.12V80.62c0-2.71,0.61-5.12,1.83-7.22c1.22-2.1,2.88-3.76,4.98-4.98c2.1-1.22,4.54-1.83,7.32-1.83
				c4.07,0,7.34,1.31,9.81,3.92c2.47,2.61,3.71,6.02,3.71,10.22v28.07h7.22V79.51c0-3.52-0.8-6.78-2.39-9.76
				C363.89,66.76,361.67,64.39,358.82,62.63z"/>
			
				<linearGradient id="SVGID_6_" gradientUnits="userSpaceOnUse" x1="111.1453" y1="72.7941" x2="501.3179" y2="72.7941" gradientTransform="matrix(1 0 0 1 -27.2842 0)">
				<stop  offset="0" style="stop-color:#4F4898"/>
				<stop  offset="0.2374" style="stop-color:#AE4995"/>
				<stop  offset="0.567" style="stop-color:#E94C50"/>
				<stop  offset="0.671" style="stop-color:#EC6F54"/>
				<stop  offset="0.901" style="stop-color:#F5B851"/>
				<stop  offset="1" style="stop-color:#F9D347"/>
			</linearGradient>
			<path class="st10" d="M410.48,101.42c-2.31,0.98-4.81,1.47-7.52,1.47c-3.39,0-6.41-0.78-9.05-2.34c-2.64-1.56-4.71-3.71-6.2-6.46
				c-1.49-2.75-2.24-5.85-2.24-9.3c0-3.52,0.74-6.63,2.24-9.3c1.49-2.68,3.56-4.8,6.2-6.36c2.64-1.56,5.66-2.34,9.05-2.34
				c2.64,0,5.12,0.49,7.42,1.47c2.3,0.98,4.27,2.39,5.9,4.22l4.68-4.78c-2.17-2.44-4.81-4.34-7.93-5.69
				c-3.12-1.36-6.47-2.03-10.07-2.03c-4.68,0-8.9,1.09-12.66,3.25c-3.76,2.17-6.75,5.14-8.95,8.9c-2.2,3.76-3.3,7.98-3.3,12.66
				s1.1,8.92,3.3,12.71c2.2,3.8,5.19,6.8,8.95,9c3.76,2.2,7.98,3.3,12.66,3.3c3.59,0,6.97-0.68,10.12-2.03s5.85-3.29,8.08-5.8
				l-4.78-4.78C414.75,99.03,412.78,100.44,410.48,101.42z"/>
			
				<linearGradient id="SVGID_7_" gradientUnits="userSpaceOnUse" x1="111.1453" y1="72.7941" x2="501.3179" y2="72.7941" gradientTransform="matrix(1 0 0 1 -27.2842 0)">
				<stop  offset="0" style="stop-color:#4F4898"/>
				<stop  offset="0.2374" style="stop-color:#AE4995"/>
				<stop  offset="0.567" style="stop-color:#E94C50"/>
				<stop  offset="0.671" style="stop-color:#EC6F54"/>
				<stop  offset="0.901" style="stop-color:#F5B851"/>
				<stop  offset="1" style="stop-color:#F9D347"/>
			</linearGradient>
			<path class="st11" d="M471.14,71.12c-1.93-3.49-4.58-6.22-7.93-8.19c-3.36-1.97-7.2-2.95-11.54-2.95
				c-4.61,0-8.78,1.09-12.51,3.25c-3.73,2.17-6.68,5.14-8.85,8.9c-2.17,3.76-3.25,7.98-3.25,12.66c0,4.75,1.1,9.02,3.3,12.81
				c2.2,3.8,5.2,6.78,9,8.95c3.8,2.17,8.1,3.25,12.91,3.25c3.8,0,7.34-0.73,10.63-2.19c3.29-1.46,6.05-3.51,8.29-6.15l-4.58-4.68
				c-1.7,2.1-3.76,3.68-6.2,4.73c-2.44,1.05-5.12,1.58-8.03,1.58c-3.59,0-6.76-0.78-9.51-2.34c-2.75-1.56-4.88-3.73-6.41-6.51
				c-1.1-2.01-1.8-4.25-2.1-6.71h39.17c0.2-0.95,0.34-1.78,0.41-2.49c0.07-0.71,0.1-1.34,0.1-1.88
				C474.03,78.63,473.07,74.61,471.14,71.12z M442.41,68.83c2.58-1.49,5.59-2.24,9.05-2.24c3.32,0,6.15,0.7,8.49,2.08
				c2.34,1.39,4.13,3.36,5.39,5.9c0.98,1.99,1.55,4.28,1.72,6.86h-32.69c0.31-2.36,0.96-4.48,1.98-6.36
				C437.82,72.4,439.83,70.32,442.41,68.83z"/>
			<g>
				
					<linearGradient id="SVGID_8_" gradientUnits="userSpaceOnUse" x1="111.1453" y1="72.7941" x2="501.3179" y2="72.7941" gradientTransform="matrix(1 0 0 1 -27.2842 0)">
					<stop  offset="0" style="stop-color:#4F4898"/>
					<stop  offset="0.2374" style="stop-color:#AE4995"/>
					<stop  offset="0.567" style="stop-color:#E94C50"/>
					<stop  offset="0.671" style="stop-color:#EC6F54"/>
					<stop  offset="0.901" style="stop-color:#F5B851"/>
					<stop  offset="1" style="stop-color:#F9D347"/>
				</linearGradient>
				<path class="st12" d="M188.31,61H176.4v-7.42c0-3.25,0.91-5.91,2.75-7.98c1.83-2.07,4.44-3.1,7.83-3.1l0.1-6.71
					c-3.59,0-6.73,0.8-9.41,2.39c-2.68,1.59-4.76,3.71-6.25,6.36c-1.49,2.64-2.24,5.59-2.24,8.85V61h-12v6.41h12v41.39h7.22V67.4
					h11.91V61z"/>
				
					<linearGradient id="SVGID_9_" gradientUnits="userSpaceOnUse" x1="111.1453" y1="72.7941" x2="501.3179" y2="72.7941" gradientTransform="matrix(1 0 0 1 -27.2842 0)">
					<stop  offset="0" style="stop-color:#4F4898"/>
					<stop  offset="0.2374" style="stop-color:#AE4995"/>
					<stop  offset="0.567" style="stop-color:#E94C50"/>
					<stop  offset="0.671" style="stop-color:#EC6F54"/>
					<stop  offset="0.901" style="stop-color:#F5B851"/>
					<stop  offset="1" style="stop-color:#F9D347"/>
				</linearGradient>
				<polygon class="st13" points="197.24,36.08 197.24,53.17 197.24,61 197.24,67.4 197.24,75.74 197.24,108.79 204.46,108.79 
					204.46,36.08 				"/>
			</g>
		</g>
	</g>
	<g>
		<polygon class="st2" points="705.11,80.54 671.04,36.9 659.86,36.9 659.86,108.69 675.82,108.69 675.82,65.69 709.38,108.69 
			721.07,108.69 721.07,36.9 705.11,36.9 		"/>
		<polygon class="st2" points="780.15,80.54 746.09,36.9 734.9,36.9 734.9,108.69 750.87,108.69 750.87,65.69 784.43,108.69 
			796.12,108.69 796.12,36.9 780.15,36.9 		"/>
		<polygon class="st2" points="825.91,78.69 857.94,78.69 857.94,65.37 825.91,65.37 825.91,50.63 860.99,50.63 860.99,36.9 
			825.91,36.9 822.15,36.9 809.95,36.9 809.95,108.69 822.15,108.69 825.91,108.69 861.5,108.69 861.5,94.86 825.91,94.86 		"/>
		<path class="st2" d="M914.69,93.54c-2.71,1.15-5.9,1.73-9.56,1.73c-3.12,0-5.98-0.54-8.59-1.63c-2.61-1.08-4.85-2.61-6.71-4.58
			c-1.86-1.97-3.32-4.34-4.37-7.12c-1.05-2.78-1.58-5.86-1.58-9.25c0-3.32,0.52-6.37,1.58-9.15c1.05-2.78,2.51-5.15,4.37-7.12
			c1.86-1.97,4.1-3.47,6.71-4.53c2.61-1.05,5.47-1.58,8.59-1.58c3.52,0,6.63,0.58,9.3,1.73c2.68,1.15,4.97,2.75,6.86,4.78
			l10.68-10.78c-3.32-3.19-7.2-5.69-11.64-7.53c-4.44-1.83-9.51-2.75-15.2-2.75c-5.36,0-10.32,0.93-14.9,2.8
			c-4.58,1.87-8.56,4.46-11.95,7.78c-3.39,3.32-6.03,7.24-7.93,11.74c-1.9,4.51-2.85,9.37-2.85,14.59c0,5.22,0.95,10.08,2.85,14.59
			c1.9,4.51,4.56,8.46,7.98,11.85c3.42,3.39,7.42,6.02,12,7.88s9.54,2.8,14.9,2.8c5.83,0,10.97-0.92,15.41-2.75
			c4.44-1.83,8.39-4.34,11.85-7.52L921.7,88.76C919.74,90.79,917.4,92.39,914.69,93.54z"/>
		<polygon class="st2" points="996.14,36.9 935.23,36.9 935.23,50.83 957.7,50.83 957.7,108.69 973.67,108.69 973.67,50.83 
			996.14,50.83 		"/>
		<path class="st2" d="M650.24,58.3c-1.9-4.51-4.56-8.46-7.98-11.85c-3.42-3.39-7.42-6.02-12-7.88c-4.58-1.86-9.54-2.8-14.9-2.8
			c-5.83,0-10.96,0.92-15.41,2.75c-1.85,0.76-3.61,1.64-5.29,2.64c-3.75,2.23-6.86,5.37-9.18,9.06l-23.61,37.49
			c-1.43,2.26-3.51,4.04-5.97,5.09l-1.7,0.73c-2.71,1.15-5.9,1.73-9.56,1.73c-3.12,0-5.98-0.54-8.59-1.63
			c-2.61-1.08-4.85-2.61-6.71-4.58c-1.87-1.97-3.32-4.34-4.37-7.12c-1.05-2.78-1.58-5.86-1.58-9.25c0-3.32,0.52-6.37,1.58-9.15
			c1.05-2.78,2.51-5.15,4.37-7.12c1.86-1.97,4.1-3.47,6.71-4.53c2.61-1.05,5.47-1.58,8.59-1.58c3.52,0,6.63,0.58,9.3,1.73
			c2.68,1.15,4.97,2.75,6.86,4.78l10.68-10.78c-3.32-3.19-7.2-5.69-11.64-7.53c-4.44-1.83-9.51-2.75-15.2-2.75
			c-5.36,0-10.32,0.93-14.9,2.8c-4.58,1.87-8.56,4.46-11.95,7.78c-3.39,3.32-6.03,7.24-7.93,11.74c-1.9,4.51-2.85,9.37-2.85,14.59
			c0,5.22,0.95,10.08,2.85,14.59c1.9,4.51,4.56,8.46,7.98,11.85c3.42,3.39,7.42,6.02,12,7.88c4.58,1.86,9.54,2.8,14.9,2.8
			c5.83,0,10.96-0.92,15.41-2.75c1.85-0.76,3.61-1.64,5.29-2.64c3.75-2.23,6.86-5.37,9.18-9.06l5.66-9l5.92,9.36
			c2.21,3.5,5.17,6.5,8.72,8.65c1.68,1.02,3.46,1.91,5.33,2.69c4.44,1.83,9.51,2.75,15.2,2.75c5.36,0,10.32-0.93,14.9-2.8
			c4.58-1.87,8.56-4.46,11.95-7.78c3.39-3.32,6.03-7.24,7.93-11.74c1.9-4.51,2.85-9.37,2.85-14.59
			C653.09,67.67,652.14,62.81,650.24,58.3z M635.14,82.05c-1.05,2.78-2.51,5.15-4.37,7.12c-1.86,1.97-4.1,3.47-6.71,4.53
			c-2.61,1.05-5.47,1.58-8.59,1.58c-3.52,0-6.63-0.58-9.3-1.73l-1.6-0.69c-2.41-1.04-4.44-2.79-5.84-5l-0.5-0.8
			c-5.62-8.89-5.63-20.21-0.02-29.1v0c1.46-2.31,3.58-4.13,6.1-5.2l1.62-0.69c2.71-1.15,5.9-1.73,9.56-1.73
			c3.12,0,5.98,0.54,8.59,1.63c2.61,1.08,4.85,2.61,6.71,4.58c1.87,1.97,3.32,4.34,4.37,7.12c1.05,2.78,1.58,5.86,1.58,9.25
			C636.72,76.22,636.19,79.27,635.14,82.05z"/>
	</g>
</g>
</svg>
